<svg xmlns="http://www.w3.org/2000/svg" viewBox="0 0 64 64">
  <defs>
    <linearGradient id="bg" x1="0%" y1="0%" x2="100%" y2="100%">
      <stop offset="0%" stop-color="#0ea5e9"/>
      <stop offset="100%" stop-color="#0c4a6e"/>
    </linearGradient>
  </defs>
  <circle cx="32" cy="32" r="32" fill="url(#bg)"/>
  <g transform="translate(32,32) rotate(45)">
    <path fill="white" d="
      M 0,-19
      C 1.5,-19 2.8,-17 2.8,-14
      L 2.8,-4
      C 5,-3.5 20,1.2 21.5,3.8
      C 22,4.8 21.5,7 20,6.5
      L 2.8,2.5
      L 2.8,10.5
      C 4.5,10.8 7.5,12 8,13.5
      C 8.5,14.5 8,15.8 7,15.5
      L 2.8,14
      L 2.8,16.5
      C 2.8,18.5 1.5,20 0,20
      C -1.5,20 -2.8,18.5 -2.8,16.5
      L -2.8,14
      L -7,15.5
      C -8,15.8 -8.5,14.5 -8,13.5
      C -7.5,12 -4.5,10.8 -2.8,10.5
      L -2.8,2.5
      L -20,6.5
      C -21.5,7 -22,4.8 -21.5,3.8
      C -20,1.2 -5,-3.5 -2.8,-4
      L -2.8,-14
      C -2.8,-17 -1.5,-19 0,-19
      Z
    "/>
  </g>
</svg>
